<svg xmlns="http://www.w3.org/2000/svg" xmlns:xlink="http://www.w3.org/1999/xlink" viewBox="0 0 64 64" width="64" height="64"><defs><linearGradient id="l" x1="0" y1="0" x2="1" y2="1"><stop offset="0" stop-color="#FF6B6B"/><stop offset="1" stop-color="#B3122B"/></linearGradient></defs><path d="M32 3L39 17L50 12L46 27L60 25L51 35L60 45L45 44L47 56L34 49L34 62L30 62L30 49L17 56L19 44L4 45L13 35L4 25L18 27L14 12L25 17Z" fill="url(#l)" stroke="#6B0A1B" stroke-width="2.4" stroke-linejoin="round"/><path d="M32 62L32 14M32 44L16 32M32 44L48 32M32 30L22 20M32 30L42 20" fill="none" stroke="#6B0A1B" stroke-width="1.8" stroke-linecap="round" opacity=".7"/></svg>